<?xml version="1.0" encoding="iso-8859-1"?>
<!-- Generator: Adobe Illustrator 19.0.0, SVG Export Plug-In . SVG Version: 6.00 Build 0)  -->
<svg version="1.1" id="Capa_1" xmlns="http://www.w3.org/2000/svg" xmlns:xlink="http://www.w3.org/1999/xlink" x="0px" y="0px"
	 viewBox="0 0 482.925 482.925" style="enable-background:new 0 0 482.925 482.925;" xml:space="preserve">
<g>
	<g>
		<path d="M449.463,210.925h-79.352l-73.096-195.12c-2.192-6.024-6.6-10.832-12.416-13.544c-5.816-2.712-12.336-2.992-18.344-0.8
			c-6.024,2.192-10.832,6.6-13.544,12.408c-2.712,5.816-2.992,12.328-0.8,18.352l65.04,178.704H163.399l65.048-178.696
			c2.192-6.024,1.912-12.544-0.8-18.352c-2.712-5.808-7.52-10.216-13.544-12.408c-6.016-2.192-12.528-1.912-18.352,0.8
			c-5.808,2.712-10.208,7.52-12.384,13.48l-73.12,195.176H33.463c-8.824,0-16,7.176-16,16v32c0,8.824,7.176,16,16,16h8.616
			l14.928,185.92c0.984,12.384,11.496,22.08,23.92,22.08h321.08c12.424,0,22.928-9.696,23.92-22.08l14.92-185.92h8.616
			c8.824,0,16-7.176,16-16v-32C465.463,218.101,458.287,210.925,449.463,210.925z M369.463,242.925c0,8.824-7.176,16-16,16
			c-8.824,0-16-7.176-16-16c0-8.824,7.176-16,16-16C362.287,226.925,369.463,234.101,369.463,242.925z M266.951,26.749
			c-0.728-2.008-0.632-4.176,0.264-6.112c0.904-1.936,2.504-3.408,4.52-4.144c2.008-0.728,4.168-0.64,6.112,0.272
			c1.936,0.904,3.408,2.504,4.168,4.584l71.016,189.576h-19.056L266.951,26.749z M325.919,226.925
			c-2.76,4.728-4.456,10.144-4.456,16s1.696,11.272,4.448,16H157.015c2.752-4.728,4.448-10.144,4.448-16
			c0-5.856-1.696-11.272-4.448-16H325.919z M198.375,21.277c0.736-2.008,2.2-3.616,4.144-4.512c1.92-0.912,4.088-1,6.12-0.272
			c2.008,0.736,3.608,2.2,4.512,4.144c0.896,1.936,0.992,4.104,0.264,6.12l-67.032,184.168h-19.048L198.375,21.277z
			 M129.463,226.925c8.824,0,16,7.176,16,16c0,8.824-7.176,16-16,16c-8.824,0-16-7.176-16-16
			C113.463,234.101,120.639,226.925,129.463,226.925z M33.463,258.925v-32h68.448c-2.752,4.728-4.448,10.144-4.448,16
			s1.696,11.272,4.448,16H33.463z M60.695,306.925h13.632c4.24,0,7.752,3.32,7.984,7.56l6.224,112
			c0.12,2.216-0.656,4.336-2.176,5.944c-1.52,1.608-3.592,2.496-5.808,2.496h-9.576L60.695,306.925z M411.951,434.925h-6.488
			c-2.216,0-4.288-0.888-5.816-2.496c-1.528-1.608-2.296-3.728-2.176-5.944l6.216-112c0.24-4.24,3.752-7.56,7.992-7.56h10.544
			L411.951,434.925z M423.511,290.925h-11.832c-12.736,0-23.256,9.96-23.96,22.664l-6.216,112c-0.368,6.56,2.016,13.056,6.52,17.824
			c4.52,4.776,10.872,7.512,17.44,7.512h5.2l-0.696,8.648c-0.328,4.12-3.824,7.352-7.968,7.352H80.927
			c-4.144,0-7.64-3.232-7.968-7.36l-0.696-8.64h8.288c6.568,0,12.92-2.736,17.44-7.504c4.504-4.768,6.888-11.264,6.52-17.832
			l-6.224-112c-0.704-12.704-11.224-22.664-23.96-22.664H59.415l-1.288-16h366.672L423.511,290.925z M381.015,258.925
			c2.752-4.728,4.448-10.144,4.448-16c0-5.856-1.696-11.272-4.448-16h68.448l0.008,32H381.015z"/>
	</g>
</g>
<g>
	<g>
		<path d="M145.463,290.925c-13.232,0-24,10.768-24,24v112c0,13.232,10.768,24,24,24s24-10.768,24-24v-112
			C169.463,301.693,158.695,290.925,145.463,290.925z M153.463,426.925c0,4.408-3.584,8-8,8s-8-3.592-8-8v-112c0-4.408,3.584-8,8-8
			s8,3.592,8,8V426.925z"/>
	</g>
</g>
<g>
	<g>
		<path d="M209.463,290.925c-13.232,0-24,10.768-24,24v112c0,13.232,10.768,24,24,24s24-10.768,24-24v-112
			C233.463,301.693,222.695,290.925,209.463,290.925z M217.463,426.925c0,4.408-3.584,8-8,8s-8-3.592-8-8v-112c0-4.408,3.584-8,8-8
			s8,3.592,8,8V426.925z"/>
	</g>
</g>
<g>
	<g>
		<path d="M273.463,290.925c-13.232,0-24,10.768-24,24v112c0,13.232,10.768,24,24,24s24-10.768,24-24v-112
			C297.463,301.693,286.695,290.925,273.463,290.925z M281.463,426.925c0,4.408-3.584,8-8,8c-4.416,0-8-3.592-8-8v-112
			c0-4.408,3.584-8,8-8c4.416,0,8,3.592,8,8V426.925z"/>
	</g>
</g>
<g>
	<g>
		<path d="M337.463,290.925c-13.232,0-24,10.768-24,24v112c0,13.232,10.768,24,24,24s24-10.768,24-24v-112
			C361.463,301.693,350.695,290.925,337.463,290.925z M345.463,426.925c0,4.408-3.584,8-8,8c-4.416,0-8-3.592-8-8v-112
			c0-4.408,3.584-8,8-8c4.416,0,8,3.592,8,8V426.925z"/>
	</g>
</g>
<g>
</g>
<g>
</g>
<g>
</g>
<g>
</g>
<g>
</g>
<g>
</g>
<g>
</g>
<g>
</g>
<g>
</g>
<g>
</g>
<g>
</g>
<g>
</g>
<g>
</g>
<g>
</g>
<g>
</g>
</svg>
